<svg width="361" height="344" viewBox="0 0 361 344" fill="none" xmlns="http://www.w3.org/2000/svg">
<g filter="url(#filter0_di_5_39)">
<path d="M221.385 27.3951L55.8852 102.395C52 105 52 105 50.8852 110.395L26.3852 271.395C23.9852 282.195 33.3852 287.895 38.3852 289.395L337.885 250.895C347.085 248.095 347.385 239.395 346.385 235.395C309.885 170.562 236.085 39.2951 232.885 32.8951C229.685 26.4951 223.885 26.5618 221.385 27.3951Z" fill="#F9C38C"/>
</g>
<g filter="url(#filter1_d_5_39)">
<path d="M89 83C89 77.8 92 75.5 93.5 75L297.995 75.9951L298.038 75.9953C300.802 76.0223 301.831 78.6718 302 80V234.5C302 236.1 299.667 237.5 298.5 238H94C90.8 238 89.3333 235.333 89 234V83Z" fill="white"/>
</g>
<g filter="url(#filter2_d_5_39)">
<rect x="235" y="98" width="82" height="46" rx="3" fill="white"/>
</g>
<g filter="url(#filter3_d_5_39)">
<rect x="106" y="186" width="60" height="40" rx="3" fill="white"/>
</g>
<g filter="url(#filter4_d_5_39)">
<rect x="158" y="121" width="64" height="48" rx="3" fill="white"/>
</g>
<g filter="url(#filter5_d_5_39)">
<rect x="178" y="184" width="34" height="42" rx="3" fill="white"/>
</g>
<g filter="url(#filter6_d_5_39)">
<rect x="247" y="190" width="44" height="79" rx="3" fill="white"/>
</g>
<g filter="url(#filter7_d_5_39)">
<rect x="106" y="121" width="40" height="48" rx="3" fill="white"/>
</g>
<g filter="url(#filter8_d_5_39)">
<rect x="243" y="107" width="38" height="27" rx="2" fill="#D1D6D9"/>
</g>
<g filter="url(#filter9_d_5_39)">
<rect x="164" y="127" width="53" height="25" rx="3" fill="#D1D6D9"/>
</g>
<g filter="url(#filter10_d_5_39)">
<rect x="112" y="190" width="48" height="22" rx="2" fill="#D1D6D9"/>
</g>
<g filter="url(#filter11_d_5_39)">
<rect x="184" y="188" width="22" height="26" rx="2" fill="#D1D6D9"/>
</g>
<g filter="url(#filter12_d_5_39)">
<rect x="254" y="195" width="31" height="43" rx="3" fill="#F8C324"/>
</g>
<g filter="url(#filter13_d_5_39)">
<rect x="112" y="127.035" width="26.9917" height="28.0147" rx="3" transform="rotate(-0.0732264 112 127.035)" fill="#F8C324"/>
</g>
<g filter="url(#filter14_d_5_39)">
<path d="M321.5 107.5L314 79C314 73 316 73 319.5 73L348.5 82C351.5 84 351.5 84.5 350 88L328.5 108.5C325 112 323 110.5 321.5 107.5Z" fill="#446BBF"/>
</g>
<g filter="url(#filter15_d_5_39)">
<path d="M8.20171 212.872L33.695 185.975C40.1081 182 41.4331 184.138 43.7518 187.879L53.3446 224.838C53.1944 229.369 52.66 229.7 47.9253 230.416L11.7703 221.017C5.71064 219.595 5.98892 216.463 8.20171 212.872Z" fill="#446BBF"/>
</g>
<g filter="url(#filter16_d_5_39)">
<rect x="27" y="39.4421" width="63.5795" height="72.2056" rx="10" transform="rotate(-20.6695 27 39.4421)" fill="#F8C324"/>
</g>
<path d="M53.9889 59.3074L55.309 58.8228C55.8224 58.6344 56.2146 58.3898 56.4857 58.0892C56.7629 57.7863 56.9268 57.4487 56.9774 57.0765C57.028 56.7042 56.9793 56.3164 56.8312 55.913C56.6764 55.4913 56.4676 55.1588 56.2049 54.9154C55.9461 54.6637 55.6336 54.5114 55.2674 54.4585C54.9073 54.4034 54.4951 54.4612 54.0306 54.6317C53.6395 54.7752 53.3141 54.9848 53.0547 55.2604C52.7991 55.5276 52.6323 55.8385 52.5544 56.193C52.4743 56.5415 52.506 56.9113 52.6496 57.3024L50.431 58.1168C50.1708 57.4078 50.1261 56.7099 50.297 56.023C50.4679 55.3361 50.817 54.719 51.3443 54.1718C51.8755 53.6161 52.5444 53.1903 53.3512 52.8941C54.2129 52.5778 55.0174 52.4455 55.7645 52.4972C56.5156 52.5405 57.1746 52.7771 57.7416 53.207C58.3086 53.6369 58.7446 54.2674 59.0497 55.0986C59.1888 55.4776 59.2415 55.8951 59.2079 56.3513C59.1742 56.8075 59.0427 57.2615 58.8132 57.7133C58.5815 58.159 58.2429 58.578 57.7975 58.9704C57.3498 59.3567 56.7837 59.6755 56.0992 59.9267L54.4399 60.5359L53.9889 59.3074ZM54.6216 61.0309L54.1774 59.8208L55.8367 59.2117C56.619 58.9245 57.3188 58.7716 57.9362 58.7531C58.5596 58.7323 59.105 58.8199 59.5723 59.0159C60.0373 59.2059 60.4244 59.4764 60.7336 59.8275C61.049 60.1764 61.2907 60.5801 61.459 61.0385C61.6878 61.6618 61.7789 62.2595 61.7323 62.8315C61.6895 63.395 61.5251 63.9201 61.239 64.4065C60.9529 64.893 60.5662 65.3227 60.079 65.6958C59.5979 66.0666 59.0365 66.3697 58.3947 66.6053C57.8202 66.8162 57.241 66.9387 56.6571 66.9727C56.0732 67.0067 55.5162 66.9442 54.9862 66.785C54.4539 66.6198 53.9792 66.3467 53.562 65.9659C53.1486 65.5767 52.8275 65.0704 52.5987 64.447L54.8081 63.636C54.9539 64.0332 55.1746 64.351 55.4701 64.5893C55.7695 64.8192 56.1187 64.958 56.5176 65.0058C56.9227 65.0512 57.3452 64.9932 57.7853 64.8317C58.2498 64.6612 58.6198 64.4317 58.8954 64.1433C59.1709 63.8549 59.3379 63.5162 59.3962 63.1272C59.4607 62.736 59.4087 62.3112 59.2405 61.8528C59.0498 61.3334 58.7941 60.9487 58.4736 60.6988C58.153 60.4489 57.7782 60.316 57.3493 60.3001C56.9182 60.278 56.449 60.3601 55.9417 60.5463L54.6216 61.0309ZM70.7217 53.0298L71.5226 55.2117C71.9062 56.2568 72.1299 57.1872 72.1935 58.003C72.2611 58.8104 72.1865 59.514 71.9697 60.1137C71.7529 60.7134 71.4149 61.219 70.9556 61.6303C70.5024 62.0394 69.9458 62.3651 69.2857 62.6074C68.7601 62.8003 68.2465 62.9126 67.7449 62.9441C67.2494 62.9735 66.7686 62.9107 66.3026 62.7558C65.8365 62.6009 65.3922 62.3445 64.9695 61.9864C64.5506 61.62 64.1542 61.1448 63.7804 60.5608C63.4126 59.9746 63.075 59.2628 62.7676 58.4255L61.9667 56.2436C61.5808 55.1924 61.3594 54.2681 61.3025 53.4707C61.2433 52.6671 61.3232 51.9685 61.5422 51.3749C61.759 50.7752 62.0951 50.2738 62.5506 49.8709C63.0121 49.4656 63.5729 49.1419 64.233 48.8996C64.7647 48.7044 65.2783 48.5921 65.7738 48.5628C66.2732 48.5252 66.7517 48.5818 67.2094 48.7328C67.6732 48.8816 68.1133 49.1361 68.5299 49.4964C68.9504 49.8483 69.3445 50.3174 69.7123 50.9037C70.0778 51.4838 70.4143 52.1925 70.7217 53.0298ZM69.4276 56.3344L68.3911 53.5108C68.196 52.9791 67.9938 52.5228 67.7846 52.1419C67.5732 51.7548 67.3547 51.4432 67.1293 51.2069C66.9077 50.9623 66.6758 50.7839 66.4335 50.6717C66.1889 50.5534 65.939 50.496 65.6837 50.4996C65.4262 50.497 65.1569 50.5474 64.8757 50.6506C64.5335 50.7762 64.2526 50.9556 64.033 51.1888C63.8112 51.4158 63.6614 51.7066 63.5835 52.0612C63.5055 52.4157 63.5041 52.8463 63.579 53.3528C63.6579 53.8509 63.8196 54.4331 64.0641 55.0992L65.1006 57.9228C65.298 58.4606 65.5024 58.9231 65.7139 59.3101C65.9253 59.6972 66.146 60.0149 66.3759 60.2634C66.6036 60.5058 66.8378 60.6903 67.0784 60.8169C67.323 60.9352 67.574 60.9957 67.8316 60.9982C68.0952 60.9985 68.3645 60.9482 68.6396 60.8472C68.9879 60.7194 69.2719 60.5388 69.4915 60.3057C69.711 60.0725 69.8586 59.7756 69.9343 59.4149C70.0077 59.0481 70.0027 58.6096 69.9194 58.0992C69.8361 57.5888 69.6722 57.0006 69.4276 56.3344ZM81.6134 49.5726L82.3437 51.5619L73.1945 54.9204L72.4643 52.9311L81.6134 49.5726ZM76.7384 47.1178L80.3056 56.8353L78.1696 57.6194L74.6024 47.9019L76.7384 47.1178Z" fill="white"/>
<path d="M71.8138 77.7193C71.7566 77.5634 71.6817 77.4349 71.5891 77.3337C71.4983 77.2283 71.3755 77.1485 71.2204 77.0945C71.0684 77.0393 70.8722 77.0056 70.6319 76.9932C70.3946 76.9798 70.1018 76.985 69.7534 77.0088C69.3874 77.0322 69.0497 77.0331 68.7401 77.0115C68.4293 76.9869 68.1506 76.9314 67.904 76.8451C67.6573 76.7588 67.4465 76.6333 67.2716 76.4687C67.0968 76.304 66.9617 76.0918 66.8663 75.832C66.771 75.5723 66.7364 75.3128 66.7626 75.0535C66.7888 74.7942 66.8714 74.5471 67.0106 74.3123C67.1517 74.0732 67.3445 73.8568 67.5889 73.6631C67.8333 73.4693 68.1267 73.3096 68.4689 73.184C68.9701 73 69.4302 72.9404 69.8492 73.005C70.2702 73.0654 70.629 73.2163 70.9256 73.4577C71.2212 73.696 71.4329 73.9893 71.5607 74.3376L70.6807 74.6607C70.5887 74.4101 70.4539 74.2082 70.2763 74.055C70.0975 73.8986 69.8795 73.8053 69.6221 73.7749C69.3637 73.7415 69.0679 73.7859 68.7348 73.9082C68.42 74.0238 68.1777 74.1665 68.0077 74.3364C67.8377 74.5062 67.7321 74.6907 67.6907 74.8896C67.6523 75.0875 67.6713 75.2903 67.7476 75.4981C67.7992 75.6387 67.8753 75.7564 67.976 75.8512C68.0787 75.9418 68.2106 76.013 68.3717 76.0648C68.536 76.1155 68.731 76.1462 68.9569 76.1569C69.1858 76.1665 69.4518 76.159 69.7549 76.1345C70.173 76.1023 70.5438 76.1015 70.867 76.1319C71.1903 76.1624 71.4708 76.2275 71.7086 76.3275C71.9484 76.4233 72.1492 76.5594 72.311 76.7357C72.4748 76.908 72.6044 77.1239 72.6997 77.3837C72.7995 77.6556 72.8348 77.9218 72.8056 78.1822C72.7764 78.4426 72.688 78.6883 72.5404 78.9193C72.3929 79.1503 72.1912 79.3614 71.9354 79.5524C71.6815 79.7392 71.3788 79.8971 71.0274 80.0261C70.7188 80.1394 70.399 80.2082 70.0681 80.2326C69.7403 80.2559 69.4227 80.2268 69.1155 80.1454C68.8112 80.0629 68.5398 79.9233 68.3011 79.7265C68.0644 79.5256 67.8849 79.2586 67.7626 78.9255L68.6427 78.6025C68.7268 78.8317 68.8435 79.0125 68.9927 79.145C69.1408 79.2744 69.3108 79.3646 69.5029 79.4154C69.698 79.4652 69.9029 79.4801 70.1175 79.4603C70.3341 79.4363 70.5493 79.385 70.7632 79.3065C71.0719 79.1932 71.3174 79.0545 71.4999 78.8904C71.6824 78.7263 71.7995 78.5446 71.8512 78.3453C71.9059 78.1449 71.8935 77.9362 71.8138 77.7193ZM77.3877 75.6732C77.3304 75.5174 77.2555 75.3888 77.1629 75.2876C77.0722 75.1822 76.9493 75.1025 76.7942 75.0484C76.6422 74.9933 76.446 74.9595 76.2057 74.9472C75.9684 74.9337 75.6756 74.9389 75.3272 74.9628C74.9613 74.9861 74.6235 74.987 74.3139 74.9654C74.0032 74.9408 73.7245 74.8853 73.4778 74.799C73.2311 74.7127 73.0203 74.5873 72.8455 74.4226C72.6706 74.2579 72.5355 74.0457 72.4401 73.786C72.3448 73.5262 72.3102 73.2667 72.3364 73.0074C72.3626 72.7482 72.4453 72.5011 72.5844 72.2662C72.7255 72.0272 72.9183 71.8108 73.1627 71.617C73.4072 71.4232 73.7005 71.2635 74.0428 71.1379C74.5439 70.9539 75.004 70.8943 75.423 70.9589C75.844 71.0194 76.2028 71.1703 76.4995 71.4116C76.795 71.6499 77.0067 71.9432 77.1346 72.2916L76.2545 72.6146C76.1625 72.3641 76.0277 72.1621 75.8501 72.0089C75.6713 71.8526 75.4533 71.7592 75.1959 71.7289C74.9375 71.6954 74.6417 71.7399 74.3086 71.8621C73.9939 71.9777 73.7515 72.1204 73.5815 72.2903C73.4116 72.4602 73.3059 72.6446 73.2645 72.8436C73.2262 73.0414 73.2451 73.2443 73.3214 73.4521C73.373 73.5926 73.4492 73.7103 73.5499 73.8051C73.6525 73.8958 73.7844 73.967 73.9456 74.0188C74.1098 74.0694 74.3049 74.1001 74.5307 74.1108C74.7596 74.1204 75.0256 74.113 75.3287 74.0884C75.7469 74.0562 76.1176 74.0554 76.4409 74.0858C76.7641 74.1163 77.0446 74.1815 77.2825 74.2814C77.5222 74.3772 77.723 74.5133 77.8848 74.6897C78.0486 74.8619 78.1782 75.0779 78.2735 75.3376C78.3734 75.6096 78.4087 75.8758 78.3794 76.1362C78.3502 76.3966 78.2618 76.6423 78.1143 76.8733C77.9667 77.1043 77.765 77.3153 77.5092 77.5063C77.2553 77.6931 76.9526 77.851 76.6012 77.98C76.2926 78.0933 75.9728 78.1622 75.6419 78.1865C75.3141 78.2098 74.9966 78.1807 74.6893 78.0993C74.385 78.0168 74.1136 77.8772 73.8749 77.6805C73.6382 77.4796 73.4587 77.2126 73.3364 76.8795L74.2165 76.5564C74.3006 76.7856 74.4173 76.9664 74.5665 77.0989C74.7146 77.2283 74.8846 77.3185 75.0767 77.3694C75.2718 77.4191 75.4767 77.434 75.6913 77.4142C75.9079 77.3902 76.1231 77.3389 76.337 77.2604C76.6457 77.1471 76.8913 77.0084 77.0737 76.8443C77.2562 76.6802 77.3733 76.4985 77.425 76.2993C77.4798 76.0989 77.4673 75.8902 77.3877 75.6732ZM81.5244 73.0988L79.7413 73.7533L79.4771 73.0337L81.2602 72.3791C81.6055 72.2524 81.8649 72.0947 82.0385 71.9062C82.212 71.7177 82.3118 71.5077 82.3377 71.2762C82.3668 71.0436 82.3353 70.802 82.2433 70.5515C82.1592 70.3223 82.0297 70.1253 81.8548 69.9607C81.683 69.7949 81.4677 69.6901 81.2089 69.6464C80.949 69.5997 80.6464 69.6397 80.3011 69.7664L78.7243 70.3452L80.9084 76.2949L80.0237 76.6197L77.5738 69.9457L80.0353 69.0422C80.5395 68.8571 80.9977 68.7877 81.41 68.834C81.8223 68.8803 82.1753 69.0247 82.4689 69.2671C82.7614 69.5065 82.9799 69.8233 83.1246 70.2175C83.2817 70.6454 83.3256 71.0436 83.2563 71.4123C83.1871 71.781 83.0075 72.1088 82.7174 72.3956C82.4263 72.6793 82.0286 72.9137 81.5244 73.0988Z" fill="white"/>
<circle cx="44" cy="47" r="3" fill="white"/>
<g filter="url(#filter17_d_5_39)">
<rect x="59.9683" y="252.813" width="55.8106" height="49.6757" rx="10" transform="rotate(21.2053 59.9683 252.813)" fill="white"/>
</g>
<path d="M66.0641 277.373L66.848 277.685C67.1528 277.807 67.426 277.855 67.6675 277.829C67.9126 277.805 68.121 277.719 68.2927 277.573C68.4644 277.427 68.598 277.235 68.6934 276.995C68.7931 276.745 68.833 276.512 68.8131 276.298C68.7983 276.082 68.7197 275.889 68.5773 275.719C68.4385 275.55 68.2312 275.411 67.9554 275.301C67.7231 275.208 67.4938 275.172 67.2676 275.191C67.0463 275.208 66.8473 275.28 66.6705 275.407C66.4952 275.531 66.3612 275.709 66.2687 275.941L64.9514 275.416C65.1191 274.995 65.3786 274.666 65.7301 274.427C66.0816 274.189 66.4847 274.053 66.9394 274.02C67.3993 273.984 67.8687 274.062 68.3477 274.253C68.8594 274.456 69.2718 274.719 69.5849 275.042C69.9031 275.362 70.1027 275.732 70.1839 276.151C70.265 276.57 70.2073 277.026 70.0107 277.52C69.9211 277.745 69.7774 277.952 69.5797 278.143C69.3819 278.333 69.1413 278.483 68.8579 278.593C68.5758 278.699 68.2567 278.751 67.9006 278.748C67.5459 278.741 67.1653 278.657 66.7588 278.495L65.7736 278.103L66.0641 277.373ZM65.6565 278.397L65.9427 277.678L66.928 278.07C67.3925 278.255 67.7663 278.467 68.0496 278.706C68.3365 278.947 68.545 279.204 68.6753 279.479C68.807 279.75 68.8716 280.026 68.8691 280.307C68.8702 280.589 68.8166 280.866 68.7082 281.138C68.5607 281.508 68.3621 281.812 68.1122 282.049C67.8673 282.283 67.5836 282.452 67.2609 282.555C66.9383 282.658 66.5934 282.695 66.2264 282.666C65.8629 282.639 65.4907 282.55 65.1096 282.398C64.7685 282.262 64.4607 282.085 64.1862 281.866C63.9117 281.648 63.6879 281.397 63.5148 281.113C63.3432 280.826 63.2405 280.514 63.2066 280.177C63.1778 279.837 63.2371 279.483 63.3846 279.113L64.6965 279.635C64.6025 279.871 64.5738 280.101 64.6104 280.326C64.6521 280.549 64.7525 280.751 64.9116 280.932C65.0744 281.114 65.2864 281.258 65.5477 281.362C65.8235 281.471 66.0807 281.517 66.3193 281.499C66.5579 281.48 66.7682 281.396 66.95 281.245C67.1355 281.096 67.2824 280.886 67.3908 280.614C67.5137 280.305 67.5536 280.031 67.5104 279.791C67.4673 279.551 67.3531 279.341 67.1678 279.162C66.9841 278.98 66.7416 278.829 66.4404 278.709L65.6565 278.397ZM76.0538 281.27L75.5378 282.566C75.2907 283.186 75.0179 283.691 74.7197 284.081C74.4264 284.469 74.1113 284.754 73.7743 284.935C73.4373 285.116 73.0838 285.206 72.7138 285.206C72.3475 285.207 71.9684 285.13 71.5765 284.974C71.2644 284.85 70.99 284.694 70.7532 284.507C70.5201 284.322 70.3305 284.101 70.1843 283.845C70.0381 283.59 69.9423 283.297 69.8968 282.968C69.8565 282.636 69.8697 282.265 69.9365 281.855C70.007 281.445 70.1413 280.992 70.3393 280.495L70.8553 279.2C71.1039 278.575 71.3752 278.074 71.6692 277.695C71.9646 277.312 72.28 277.032 72.6156 276.854C72.9527 276.673 73.3036 276.584 73.6685 276.586C74.037 276.59 74.4172 276.67 74.8091 276.826C75.1248 276.952 75.3993 277.107 75.6324 277.293C75.8706 277.476 76.0617 277.693 76.2057 277.944C76.3533 278.196 76.448 278.486 76.4898 278.814C76.5367 279.139 76.5249 279.507 76.4544 279.916C76.3854 280.322 76.2519 280.773 76.0538 281.27ZM74.1522 282.228L74.82 280.552C74.9458 280.236 75.0382 279.951 75.0973 279.697C75.1579 279.439 75.1851 279.213 75.179 279.017C75.178 278.819 75.1458 278.646 75.0825 278.499C75.0206 278.348 74.9319 278.223 74.8165 278.122C74.7024 278.018 74.5619 277.932 74.395 277.866C74.1918 277.785 73.9944 277.753 73.803 277.769C73.6129 277.781 73.4295 277.851 73.2527 277.978C73.0759 278.106 72.9028 278.297 72.7335 278.554C72.5692 278.808 72.4083 279.133 72.2507 279.528L71.5829 281.205C71.4557 281.524 71.3618 281.813 71.3013 282.07C71.2407 282.328 71.2121 282.558 71.2153 282.761C71.2199 282.961 71.2506 283.137 71.3074 283.29C71.3693 283.441 71.4573 283.568 71.5713 283.673C71.689 283.778 71.8295 283.864 71.9928 283.929C72.1996 284.011 72.3988 284.044 72.5902 284.028C72.7817 284.012 72.9666 283.938 73.1448 283.807C73.3245 283.673 73.498 283.475 73.6651 283.214C73.8323 282.952 73.9947 282.624 74.1522 282.228Z" fill="black"/>
<path d="M79.9493 285.464L79.0148 287.81L78.3589 287.549L79.5318 284.604L80.1497 284.85L79.9493 285.464ZM79.5385 286.187L79.3164 286.095C79.3973 285.892 79.4975 285.714 79.617 285.562C79.7365 285.41 79.8705 285.29 80.0191 285.202C80.1684 285.112 80.3293 285.062 80.5019 285.051C80.6771 285.038 80.8608 285.071 81.0532 285.147C81.1875 285.201 81.302 285.269 81.3968 285.353C81.4941 285.436 81.567 285.536 81.6154 285.652C81.6656 285.768 81.6865 285.901 81.678 286.049C81.6713 286.197 81.6311 286.364 81.5574 286.549L80.7758 288.512L80.1198 288.251L80.8787 286.345C80.9358 286.202 80.9588 286.081 80.9478 285.982C80.9386 285.884 80.9009 285.801 80.8348 285.735C80.7712 285.668 80.685 285.612 80.5761 285.569C80.4528 285.52 80.3381 285.501 80.2322 285.514C80.1282 285.527 80.0326 285.564 79.9457 285.624C79.8587 285.684 79.7812 285.762 79.7132 285.859C79.6451 285.956 79.5869 286.065 79.5385 286.187ZM81.4342 286.74L81.0995 286.686C81.1703 286.508 81.2617 286.35 81.3735 286.211C81.4879 286.072 81.6171 285.961 81.761 285.88C81.9074 285.797 82.066 285.75 82.2368 285.738C82.4076 285.727 82.5855 285.757 82.7706 285.831C82.9212 285.891 83.0472 285.966 83.1485 286.054C83.2523 286.142 83.3287 286.246 83.3774 286.366C83.4262 286.486 83.4445 286.625 83.4324 286.782C83.4211 286.938 83.3764 287.113 83.2983 287.309L82.5394 289.214L81.8808 288.952L82.6407 287.044C82.7 286.895 82.7241 286.771 82.7131 286.672C82.7039 286.574 82.6664 286.494 82.6007 286.432C82.5356 286.368 82.4487 286.315 82.3398 286.271C82.2382 286.231 82.1408 286.214 82.0476 286.221C81.9569 286.227 81.8719 286.253 81.7926 286.299C81.7139 286.344 81.644 286.403 81.5828 286.478C81.5235 286.553 81.4739 286.64 81.4342 286.74ZM85.0896 286.818L83.9166 289.763L83.258 289.5L84.431 286.556L85.0896 286.818ZM84.6953 285.765C84.735 285.665 84.8006 285.596 84.8919 285.557C84.9858 285.516 85.0917 285.519 85.2096 285.566C85.3258 285.613 85.404 285.683 85.4444 285.777C85.4855 285.869 85.4862 285.965 85.4465 286.064C85.4075 286.162 85.3414 286.231 85.2482 286.269C85.1551 286.308 85.0504 286.304 84.9343 286.258C84.8163 286.211 84.7368 286.141 84.6957 286.049C84.6564 285.958 84.6563 285.863 84.6953 285.765ZM86.2082 287.992L85.2857 290.308L84.6297 290.047L85.8027 287.102L86.4205 287.348L86.2082 287.992ZM85.7985 288.68L85.5873 288.593C85.6722 288.385 85.7775 288.205 85.9031 288.053C86.0306 287.902 86.17 287.784 86.3215 287.7C86.4748 287.616 86.6365 287.569 86.8066 287.559C86.9774 287.547 87.1508 287.576 87.3268 287.646C87.4683 287.702 87.5883 287.773 87.6867 287.859C87.7877 287.943 87.8616 288.045 87.9086 288.165C87.9574 288.285 87.9757 288.424 87.9636 288.581C87.9522 288.736 87.9064 288.914 87.8262 289.116L87.0684 291.018L86.4098 290.756L87.1686 288.851C87.225 288.709 87.2486 288.589 87.2394 288.491C87.2327 288.392 87.1972 288.309 87.1329 288.244C87.0711 288.177 86.9831 288.121 86.8688 288.075C86.7563 288.03 86.6462 288.014 86.5385 288.026C86.4308 288.037 86.3298 288.072 86.2356 288.129C86.1432 288.187 86.0594 288.263 85.9841 288.357C85.9088 288.451 85.8469 288.559 85.7985 288.68Z" fill="#8B8B8B"/>
<path d="M60.9445 285.861L61.4534 286.063L61.4649 289.811L64.0472 287.096L64.5589 287.3L61.3693 290.621L60.9719 290.463L60.9445 285.861ZM60.7784 285.794L61.2275 285.973L60.3384 288.42L59.7226 289.965L59.2 289.757L60.7784 285.794ZM64.2731 287.186L64.7222 287.365L63.1438 291.328L62.6213 291.12L63.237 289.574L64.2731 287.186ZM65.1907 292.206C64.9856 292.125 64.8134 292.016 64.6739 291.881C64.537 291.744 64.4339 291.589 64.3648 291.414C64.2974 291.24 64.2667 291.053 64.2725 290.854C64.2784 290.654 64.3225 290.451 64.4049 290.244L64.4505 290.13C64.5459 289.89 64.6662 289.691 64.8114 289.533C64.9573 289.372 65.1171 289.251 65.2907 289.168C65.4643 289.086 65.6416 289.042 65.8225 289.037C66.0035 289.031 66.1766 289.061 66.3417 289.127C66.5522 289.211 66.7191 289.319 66.8427 289.452C66.968 289.586 67.0536 289.738 67.0996 289.908C67.1462 290.076 67.1581 290.257 67.1352 290.452C67.113 290.645 67.0607 290.845 66.9783 291.052L66.8883 291.278L64.6891 290.402L64.8528 289.991L66.5485 290.666L66.5637 290.628C66.6084 290.494 66.6318 290.356 66.6338 290.214C66.6376 290.073 66.6054 289.942 66.5375 289.823C66.4695 289.703 66.3493 289.609 66.1769 289.54C66.0626 289.495 65.9476 289.477 65.8319 289.488C65.7169 289.497 65.6062 289.535 65.4997 289.602C65.3931 289.669 65.2937 289.763 65.2014 289.883C65.1091 290.004 65.0275 290.154 64.9567 290.332L64.9112 290.446C64.8555 290.586 64.8222 290.725 64.8111 290.863C64.8026 291.001 64.8172 291.131 64.8547 291.253C64.894 291.376 64.9568 291.485 65.0429 291.58C65.1308 291.676 65.2437 291.751 65.3816 291.806C65.5594 291.877 65.7245 291.901 65.8767 291.877C66.029 291.854 66.1757 291.8 66.3166 291.715L66.525 292.079C66.4232 292.15 66.3059 292.209 66.1733 292.257C66.0406 292.305 65.8917 292.328 65.7267 292.325C65.5635 292.323 65.3848 292.284 65.1907 292.206ZM68.1465 293.384C67.9414 293.302 67.7692 293.194 67.6297 293.058C67.4928 292.922 67.3897 292.766 67.3206 292.591C67.2532 292.417 67.2225 292.231 67.2283 292.031C67.2342 291.832 67.2783 291.628 67.3607 291.422L67.4063 291.307C67.5017 291.068 67.622 290.869 67.7672 290.71C67.9131 290.549 68.0729 290.428 68.2465 290.346C68.4201 290.264 68.5974 290.22 68.7783 290.214C68.9593 290.208 69.1324 290.238 69.2975 290.304C69.508 290.388 69.675 290.496 69.7985 290.63C69.9238 290.764 70.0094 290.916 70.0554 291.085C70.102 291.253 70.1139 291.434 70.091 291.629C70.0688 291.822 70.0165 292.022 69.9341 292.229L69.8441 292.455L67.645 291.579L67.8086 291.168L69.5043 291.843L69.5195 291.805C69.5642 291.672 69.5876 291.534 69.5896 291.392C69.5934 291.25 69.5613 291.12 69.4933 291C69.4253 290.88 69.3051 290.786 69.1327 290.718C69.0184 290.672 68.9034 290.655 68.7877 290.665C68.6727 290.674 68.562 290.712 68.4555 290.779C68.3489 290.846 68.2495 290.94 68.1572 291.061C68.0649 291.182 67.9833 291.331 67.9125 291.509L67.867 291.623C67.8113 291.763 67.778 291.902 67.7669 292.041C67.7584 292.178 67.773 292.308 67.8105 292.43C67.8498 292.553 67.9126 292.662 67.9987 292.757C68.0866 292.853 68.1995 292.929 68.3374 292.984C68.5152 293.054 68.6803 293.078 68.8326 293.055C68.9848 293.031 69.1315 292.977 69.2724 292.892L69.4808 293.256C69.379 293.327 69.2617 293.386 69.1291 293.435C68.9964 293.483 68.8475 293.505 68.6825 293.503C68.5193 293.501 68.3406 293.461 68.1465 293.384ZM72.3078 291.566L72.1539 291.953L70.5617 291.318L70.7156 290.932L72.3078 291.566ZM71.5396 290.431L72.0431 290.631L70.8756 293.563C70.8358 293.662 70.8213 293.744 70.8319 293.807C70.8425 293.87 70.869 293.919 70.9115 293.955C70.954 293.991 71.0034 294.02 71.0596 294.043C71.1014 294.059 71.1464 294.073 71.1946 294.084C71.2454 294.094 71.2837 294.1 71.3094 294.104L71.1485 294.516C71.1035 294.513 71.0462 294.504 70.9765 294.489C70.9079 294.476 70.8283 294.452 70.7376 294.416C70.6142 294.367 70.5105 294.297 70.4266 294.207C70.3427 294.117 70.2927 294.002 70.2765 293.863C70.2629 293.723 70.2951 293.555 70.3732 293.359L71.5396 290.431ZM73.4455 292.019L72.2725 294.964L71.7663 294.762L72.9393 291.818L73.4455 292.019ZM73.2123 291.021C73.2448 290.94 73.2968 290.88 73.3682 290.844C73.4414 290.808 73.527 290.809 73.6249 290.848C73.7211 290.886 73.7834 290.944 73.8118 291.02C73.842 291.098 73.8409 291.177 73.8083 291.259C73.7773 291.337 73.7242 291.393 73.6492 291.429C73.5767 291.463 73.4924 291.461 73.3962 291.422C73.2982 291.383 73.2347 291.327 73.2055 291.252C73.179 291.176 73.1812 291.099 73.2123 291.021ZM74.507 293.17L73.5844 295.487L73.0809 295.286L74.2539 292.341L74.7302 292.531L74.507 293.17ZM74.0956 293.855L73.8893 293.763C73.9713 293.563 74.0753 293.389 74.2013 293.241C74.328 293.092 74.4693 292.975 74.6251 292.89C74.781 292.804 74.9452 292.756 75.1178 292.745C75.293 292.733 75.4695 292.762 75.6473 292.833C75.7925 292.891 75.9151 292.963 76.0154 293.049C76.1163 293.133 76.1906 293.235 76.2383 293.352C76.2878 293.471 76.3072 293.607 76.2966 293.76C76.2867 293.912 76.243 294.085 76.1657 294.279L75.3971 296.209L74.8908 296.007L75.6616 294.072C75.7231 293.918 75.7495 293.785 75.741 293.675C75.7332 293.562 75.6941 293.468 75.6236 293.391C75.5539 293.313 75.4555 293.249 75.3285 293.198C75.2033 293.148 75.0785 293.129 74.9541 293.14C74.8315 293.153 74.7146 293.19 74.6034 293.253C74.4939 293.317 74.3945 293.4 74.3051 293.503C74.2182 293.605 74.1483 293.722 74.0956 293.855ZM79.2428 294.328L79.7001 294.51L78.552 297.393C78.4487 297.652 78.3079 297.853 78.1296 297.994C77.9514 298.135 77.7492 298.216 77.5229 298.235C77.2977 298.256 77.0626 298.219 76.8176 298.121C76.716 298.081 76.6028 298.016 76.4779 297.929C76.3541 297.844 76.2411 297.737 76.139 297.608C76.038 297.481 75.9683 297.337 75.93 297.175L76.3133 296.98C76.3774 297.178 76.465 297.333 76.5762 297.445C76.6891 297.557 76.8119 297.639 76.9443 297.692C77.104 297.756 77.2538 297.781 77.3938 297.767C77.5338 297.753 77.659 297.7 77.7695 297.608C77.8811 297.518 77.9708 297.387 78.0387 297.217L78.9385 294.958L79.2428 294.328ZM76.6156 295.026L76.6384 294.969C76.728 294.744 76.8356 294.55 76.9612 294.388C77.0894 294.224 77.2297 294.096 77.3823 294.003C77.5367 293.912 77.6996 293.859 77.8711 293.845C78.0434 293.83 78.2193 293.858 78.399 293.929C78.584 294.003 78.7325 294.1 78.8444 294.22C78.9588 294.339 79.0396 294.48 79.0866 294.641C79.1361 294.802 79.1547 294.98 79.1423 295.174C79.1299 295.369 79.0912 295.58 79.0263 295.806L78.9265 296.057C78.8206 296.265 78.7042 296.443 78.5775 296.592C78.4526 296.742 78.3169 296.859 78.1705 296.941C78.026 297.024 77.8708 297.071 77.7051 297.081C77.54 297.088 77.3641 297.055 77.1772 296.981C77.0012 296.911 76.8563 296.81 76.7426 296.678C76.6307 296.548 76.5507 296.395 76.5026 296.22C76.4544 296.045 76.4393 295.856 76.4571 295.653C76.4775 295.449 76.5303 295.24 76.6156 295.026ZM77.1419 295.169L77.1191 295.226C77.0606 295.373 77.0202 295.517 76.9979 295.657C76.9774 295.798 76.9785 295.93 77.0012 296.053C77.0257 296.176 77.0757 296.285 77.1513 296.381C77.2276 296.474 77.3338 296.548 77.4699 296.602C77.6368 296.669 77.7888 296.688 77.9259 296.661C78.0629 296.633 78.1863 296.574 78.2961 296.483C78.4077 296.393 78.5087 296.287 78.5992 296.166L78.8604 295.51C78.8802 295.402 78.8877 295.294 78.8828 295.185C78.8805 295.074 78.8611 294.97 78.8247 294.871C78.7908 294.772 78.7354 294.681 78.6584 294.6C78.5814 294.519 78.4793 294.453 78.3523 294.402C78.2144 294.348 78.084 294.329 77.9611 294.348C77.8407 294.365 77.7289 294.411 77.6256 294.485C77.5249 294.559 77.4331 294.654 77.3502 294.773C77.2699 294.89 77.2004 295.022 77.1419 295.169Z" fill="#8B8B8B"/>
<circle cx="97.2363" cy="281.236" r="3" transform="rotate(41.8749 97.2363 281.236)" fill="#F8C324"/>
<defs>
<filter id="filter0_di_5_39" x="16" y="19" width="340.776" height="282.395" filterUnits="userSpaceOnUse" color-interpolation-filters="sRGB">
<feFlood flood-opacity="0" result="BackgroundImageFix"/>
<feColorMatrix in="SourceAlpha" type="matrix" values="0 0 0 0 0 0 0 0 0 0 0 0 0 0 0 0 0 0 127 0" result="hardAlpha"/>
<feOffset dy="2"/>
<feGaussianBlur stdDeviation="5"/>
<feComposite in2="hardAlpha" operator="out"/>
<feColorMatrix type="matrix" values="0 0 0 0 0 0 0 0 0 0 0 0 0 0 0 0 0 0 0.15 0"/>
<feBlend mode="normal" in2="BackgroundImageFix" result="effect1_dropShadow_5_39"/>
<feBlend mode="normal" in="SourceGraphic" in2="effect1_dropShadow_5_39" result="shape"/>
<feColorMatrix in="SourceAlpha" type="matrix" values="0 0 0 0 0 0 0 0 0 0 0 0 0 0 0 0 0 0 127 0" result="hardAlpha"/>
<feOffset/>
<feGaussianBlur stdDeviation="12.5"/>
<feComposite in2="hardAlpha" operator="arithmetic" k2="-1" k3="1"/>
<feColorMatrix type="matrix" values="0 0 0 0 0.980392 0 0 0 0 0.815686 0 0 0 0 0.643137 0 0 0 1 0"/>
<feBlend mode="normal" in2="shape" result="effect2_innerShadow_5_39"/>
</filter>
<filter id="filter1_d_5_39" x="49" y="35" width="293" height="243" filterUnits="userSpaceOnUse" color-interpolation-filters="sRGB">
<feFlood flood-opacity="0" result="BackgroundImageFix"/>
<feColorMatrix in="SourceAlpha" type="matrix" values="0 0 0 0 0 0 0 0 0 0 0 0 0 0 0 0 0 0 127 0" result="hardAlpha"/>
<feOffset/>
<feGaussianBlur stdDeviation="20"/>
<feComposite in2="hardAlpha" operator="out"/>
<feColorMatrix type="matrix" values="0 0 0 0 0.976471 0 0 0 0 0.737255 0 0 0 0 0.490196 0 0 0 1 0"/>
<feBlend mode="normal" in2="BackgroundImageFix" result="effect1_dropShadow_5_39"/>
<feBlend mode="normal" in="SourceGraphic" in2="effect1_dropShadow_5_39" result="shape"/>
</filter>
<filter id="filter2_d_5_39" x="231" y="98" width="90" height="54" filterUnits="userSpaceOnUse" color-interpolation-filters="sRGB">
<feFlood flood-opacity="0" result="BackgroundImageFix"/>
<feColorMatrix in="SourceAlpha" type="matrix" values="0 0 0 0 0 0 0 0 0 0 0 0 0 0 0 0 0 0 127 0" result="hardAlpha"/>
<feOffset dy="4"/>
<feGaussianBlur stdDeviation="2"/>
<feComposite in2="hardAlpha" operator="out"/>
<feColorMatrix type="matrix" values="0 0 0 0 0 0 0 0 0 0 0 0 0 0 0 0 0 0 0.2 0"/>
<feBlend mode="normal" in2="BackgroundImageFix" result="effect1_dropShadow_5_39"/>
<feBlend mode="normal" in="SourceGraphic" in2="effect1_dropShadow_5_39" result="shape"/>
</filter>
<filter id="filter3_d_5_39" x="102" y="186" width="68" height="48" filterUnits="userSpaceOnUse" color-interpolation-filters="sRGB">
<feFlood flood-opacity="0" result="BackgroundImageFix"/>
<feColorMatrix in="SourceAlpha" type="matrix" values="0 0 0 0 0 0 0 0 0 0 0 0 0 0 0 0 0 0 127 0" result="hardAlpha"/>
<feOffset dy="4"/>
<feGaussianBlur stdDeviation="2"/>
<feComposite in2="hardAlpha" operator="out"/>
<feColorMatrix type="matrix" values="0 0 0 0 0 0 0 0 0 0 0 0 0 0 0 0 0 0 0.2 0"/>
<feBlend mode="normal" in2="BackgroundImageFix" result="effect1_dropShadow_5_39"/>
<feBlend mode="normal" in="SourceGraphic" in2="effect1_dropShadow_5_39" result="shape"/>
</filter>
<filter id="filter4_d_5_39" x="154" y="121" width="72" height="56" filterUnits="userSpaceOnUse" color-interpolation-filters="sRGB">
<feFlood flood-opacity="0" result="BackgroundImageFix"/>
<feColorMatrix in="SourceAlpha" type="matrix" values="0 0 0 0 0 0 0 0 0 0 0 0 0 0 0 0 0 0 127 0" result="hardAlpha"/>
<feOffset dy="4"/>
<feGaussianBlur stdDeviation="2"/>
<feComposite in2="hardAlpha" operator="out"/>
<feColorMatrix type="matrix" values="0 0 0 0 0 0 0 0 0 0 0 0 0 0 0 0 0 0 0.2 0"/>
<feBlend mode="normal" in2="BackgroundImageFix" result="effect1_dropShadow_5_39"/>
<feBlend mode="normal" in="SourceGraphic" in2="effect1_dropShadow_5_39" result="shape"/>
</filter>
<filter id="filter5_d_5_39" x="174" y="184" width="42" height="50" filterUnits="userSpaceOnUse" color-interpolation-filters="sRGB">
<feFlood flood-opacity="0" result="BackgroundImageFix"/>
<feColorMatrix in="SourceAlpha" type="matrix" values="0 0 0 0 0 0 0 0 0 0 0 0 0 0 0 0 0 0 127 0" result="hardAlpha"/>
<feOffset dy="4"/>
<feGaussianBlur stdDeviation="2"/>
<feComposite in2="hardAlpha" operator="out"/>
<feColorMatrix type="matrix" values="0 0 0 0 0 0 0 0 0 0 0 0 0 0 0 0 0 0 0.2 0"/>
<feBlend mode="normal" in2="BackgroundImageFix" result="effect1_dropShadow_5_39"/>
<feBlend mode="normal" in="SourceGraphic" in2="effect1_dropShadow_5_39" result="shape"/>
</filter>
<filter id="filter6_d_5_39" x="243" y="190" width="52" height="87" filterUnits="userSpaceOnUse" color-interpolation-filters="sRGB">
<feFlood flood-opacity="0" result="BackgroundImageFix"/>
<feColorMatrix in="SourceAlpha" type="matrix" values="0 0 0 0 0 0 0 0 0 0 0 0 0 0 0 0 0 0 127 0" result="hardAlpha"/>
<feOffset dy="4"/>
<feGaussianBlur stdDeviation="2"/>
<feComposite in2="hardAlpha" operator="out"/>
<feColorMatrix type="matrix" values="0 0 0 0 0 0 0 0 0 0 0 0 0 0 0 0 0 0 0.2 0"/>
<feBlend mode="normal" in2="BackgroundImageFix" result="effect1_dropShadow_5_39"/>
<feBlend mode="normal" in="SourceGraphic" in2="effect1_dropShadow_5_39" result="shape"/>
</filter>
<filter id="filter7_d_5_39" x="102" y="121" width="48" height="56" filterUnits="userSpaceOnUse" color-interpolation-filters="sRGB">
<feFlood flood-opacity="0" result="BackgroundImageFix"/>
<feColorMatrix in="SourceAlpha" type="matrix" values="0 0 0 0 0 0 0 0 0 0 0 0 0 0 0 0 0 0 127 0" result="hardAlpha"/>
<feOffset dy="4"/>
<feGaussianBlur stdDeviation="2"/>
<feComposite in2="hardAlpha" operator="out"/>
<feColorMatrix type="matrix" values="0 0 0 0 0 0 0 0 0 0 0 0 0 0 0 0 0 0 0.2 0"/>
<feBlend mode="normal" in2="BackgroundImageFix" result="effect1_dropShadow_5_39"/>
<feBlend mode="normal" in="SourceGraphic" in2="effect1_dropShadow_5_39" result="shape"/>
</filter>
<filter id="filter8_d_5_39" x="239" y="105" width="46" height="35" filterUnits="userSpaceOnUse" color-interpolation-filters="sRGB">
<feFlood flood-opacity="0" result="BackgroundImageFix"/>
<feColorMatrix in="SourceAlpha" type="matrix" values="0 0 0 0 0 0 0 0 0 0 0 0 0 0 0 0 0 0 127 0" result="hardAlpha"/>
<feOffset dy="2"/>
<feGaussianBlur stdDeviation="2"/>
<feComposite in2="hardAlpha" operator="out"/>
<feColorMatrix type="matrix" values="0 0 0 0 0 0 0 0 0 0 0 0 0 0 0 0 0 0 0.05 0"/>
<feBlend mode="normal" in2="BackgroundImageFix" result="effect1_dropShadow_5_39"/>
<feBlend mode="normal" in="SourceGraphic" in2="effect1_dropShadow_5_39" result="shape"/>
</filter>
<filter id="filter9_d_5_39" x="160" y="125" width="61" height="33" filterUnits="userSpaceOnUse" color-interpolation-filters="sRGB">
<feFlood flood-opacity="0" result="BackgroundImageFix"/>
<feColorMatrix in="SourceAlpha" type="matrix" values="0 0 0 0 0 0 0 0 0 0 0 0 0 0 0 0 0 0 127 0" result="hardAlpha"/>
<feOffset dy="2"/>
<feGaussianBlur stdDeviation="2"/>
<feComposite in2="hardAlpha" operator="out"/>
<feColorMatrix type="matrix" values="0 0 0 0 0 0 0 0 0 0 0 0 0 0 0 0 0 0 0.05 0"/>
<feBlend mode="normal" in2="BackgroundImageFix" result="effect1_dropShadow_5_39"/>
<feBlend mode="normal" in="SourceGraphic" in2="effect1_dropShadow_5_39" result="shape"/>
</filter>
<filter id="filter10_d_5_39" x="108" y="188" width="56" height="30" filterUnits="userSpaceOnUse" color-interpolation-filters="sRGB">
<feFlood flood-opacity="0" result="BackgroundImageFix"/>
<feColorMatrix in="SourceAlpha" type="matrix" values="0 0 0 0 0 0 0 0 0 0 0 0 0 0 0 0 0 0 127 0" result="hardAlpha"/>
<feOffset dy="2"/>
<feGaussianBlur stdDeviation="2"/>
<feComposite in2="hardAlpha" operator="out"/>
<feColorMatrix type="matrix" values="0 0 0 0 0 0 0 0 0 0 0 0 0 0 0 0 0 0 0.05 0"/>
<feBlend mode="normal" in2="BackgroundImageFix" result="effect1_dropShadow_5_39"/>
<feBlend mode="normal" in="SourceGraphic" in2="effect1_dropShadow_5_39" result="shape"/>
</filter>
<filter id="filter11_d_5_39" x="180" y="186" width="30" height="34" filterUnits="userSpaceOnUse" color-interpolation-filters="sRGB">
<feFlood flood-opacity="0" result="BackgroundImageFix"/>
<feColorMatrix in="SourceAlpha" type="matrix" values="0 0 0 0 0 0 0 0 0 0 0 0 0 0 0 0 0 0 127 0" result="hardAlpha"/>
<feOffset dy="2"/>
<feGaussianBlur stdDeviation="2"/>
<feComposite in2="hardAlpha" operator="out"/>
<feColorMatrix type="matrix" values="0 0 0 0 0 0 0 0 0 0 0 0 0 0 0 0 0 0 0.05 0"/>
<feBlend mode="normal" in2="BackgroundImageFix" result="effect1_dropShadow_5_39"/>
<feBlend mode="normal" in="SourceGraphic" in2="effect1_dropShadow_5_39" result="shape"/>
</filter>
<filter id="filter12_d_5_39" x="250" y="193" width="39" height="51" filterUnits="userSpaceOnUse" color-interpolation-filters="sRGB">
<feFlood flood-opacity="0" result="BackgroundImageFix"/>
<feColorMatrix in="SourceAlpha" type="matrix" values="0 0 0 0 0 0 0 0 0 0 0 0 0 0 0 0 0 0 127 0" result="hardAlpha"/>
<feOffset dy="2"/>
<feGaussianBlur stdDeviation="2"/>
<feComposite in2="hardAlpha" operator="out"/>
<feColorMatrix type="matrix" values="0 0 0 0 0 0 0 0 0 0 0 0 0 0 0 0 0 0 0.05 0"/>
<feBlend mode="normal" in2="BackgroundImageFix" result="effect1_dropShadow_5_39"/>
<feBlend mode="normal" in="SourceGraphic" in2="effect1_dropShadow_5_39" result="shape"/>
</filter>
<filter id="filter13_d_5_39" x="108.004" y="125.004" width="35.0198" height="36.0415" filterUnits="userSpaceOnUse" color-interpolation-filters="sRGB">
<feFlood flood-opacity="0" result="BackgroundImageFix"/>
<feColorMatrix in="SourceAlpha" type="matrix" values="0 0 0 0 0 0 0 0 0 0 0 0 0 0 0 0 0 0 127 0" result="hardAlpha"/>
<feOffset dy="2"/>
<feGaussianBlur stdDeviation="2"/>
<feComposite in2="hardAlpha" operator="out"/>
<feColorMatrix type="matrix" values="0 0 0 0 0 0 0 0 0 0 0 0 0 0 0 0 0 0 0.05 0"/>
<feBlend mode="normal" in2="BackgroundImageFix" result="effect1_dropShadow_5_39"/>
<feBlend mode="normal" in="SourceGraphic" in2="effect1_dropShadow_5_39" result="shape"/>
</filter>
<filter id="filter14_d_5_39" x="308" y="69" width="52.9853" height="53.5248" filterUnits="userSpaceOnUse" color-interpolation-filters="sRGB">
<feFlood flood-opacity="0" result="BackgroundImageFix"/>
<feColorMatrix in="SourceAlpha" type="matrix" values="0 0 0 0 0 0 0 0 0 0 0 0 0 0 0 0 0 0 127 0" result="hardAlpha"/>
<feOffset dx="2" dy="4"/>
<feGaussianBlur stdDeviation="4"/>
<feComposite in2="hardAlpha" operator="out"/>
<feColorMatrix type="matrix" values="0 0 0 0 0 0 0 0 0 0 0 0 0 0 0 0 0 0 0.2 0"/>
<feBlend mode="normal" in2="BackgroundImageFix" result="effect1_dropShadow_5_39"/>
<feBlend mode="normal" in="SourceGraphic" in2="effect1_dropShadow_5_39" result="shape"/>
</filter>
<filter id="filter15_d_5_39" x="0.756439" y="179.844" width="62.5881" height="62.5718" filterUnits="userSpaceOnUse" color-interpolation-filters="sRGB">
<feFlood flood-opacity="0" result="BackgroundImageFix"/>
<feColorMatrix in="SourceAlpha" type="matrix" values="0 0 0 0 0 0 0 0 0 0 0 0 0 0 0 0 0 0 127 0" result="hardAlpha"/>
<feOffset dx="2" dy="4"/>
<feGaussianBlur stdDeviation="4"/>
<feComposite in2="hardAlpha" operator="out"/>
<feColorMatrix type="matrix" values="0 0 0 0 0 0 0 0 0 0 0 0 0 0 0 0 0 0 0.2 0"/>
<feBlend mode="normal" in2="BackgroundImageFix" result="effect1_dropShadow_5_39"/>
<feBlend mode="normal" in="SourceGraphic" in2="effect1_dropShadow_5_39" result="shape"/>
</filter>
<filter id="filter16_d_5_39" x="8.88339" y="0.883392" width="125.207" height="130.233" filterUnits="userSpaceOnUse" color-interpolation-filters="sRGB">
<feFlood flood-opacity="0" result="BackgroundImageFix"/>
<feColorMatrix in="SourceAlpha" type="matrix" values="0 0 0 0 0 0 0 0 0 0 0 0 0 0 0 0 0 0 127 0" result="hardAlpha"/>
<feOffset dx="2" dy="4"/>
<feGaussianBlur stdDeviation="11.5"/>
<feComposite in2="hardAlpha" operator="out"/>
<feColorMatrix type="matrix" values="0 0 0 0 0 0 0 0 0 0 0 0 0 0 0 0 0 0 0.19 0"/>
<feBlend mode="normal" in2="BackgroundImageFix" result="effect1_dropShadow_5_39"/>
<feBlend mode="normal" in="SourceGraphic" in2="effect1_dropShadow_5_39" result="shape"/>
</filter>
<filter id="filter17_d_5_39" x="23.9373" y="236.75" width="110.125" height="106.625" filterUnits="userSpaceOnUse" color-interpolation-filters="sRGB">
<feFlood flood-opacity="0" result="BackgroundImageFix"/>
<feColorMatrix in="SourceAlpha" type="matrix" values="0 0 0 0 0 0 0 0 0 0 0 0 0 0 0 0 0 0 127 0" result="hardAlpha"/>
<feOffset dx="2" dy="4"/>
<feGaussianBlur stdDeviation="11.5"/>
<feComposite in2="hardAlpha" operator="out"/>
<feColorMatrix type="matrix" values="0 0 0 0 0 0 0 0 0 0 0 0 0 0 0 0 0 0 0.19 0"/>
<feBlend mode="normal" in2="BackgroundImageFix" result="effect1_dropShadow_5_39"/>
<feBlend mode="normal" in="SourceGraphic" in2="effect1_dropShadow_5_39" result="shape"/>
</filter>
</defs>
</svg>
